<?xml version="1.0" encoding="utf-8"?>
<!-- Generator: Adobe Illustrator 27.0.0, SVG Export Plug-In . SVG Version: 6.00 Build 0)  -->
<svg version="1.1" id="Capa_1" xmlns="http://www.w3.org/2000/svg" xmlns:xlink="http://www.w3.org/1999/xlink" x="0px" y="0px"
	 viewBox="0 0 31.9 31.9" style="enable-background:new 0 0 31.9 31.9;" xml:space="preserve">
<style type="text/css">
	.st0{fill:#0071BC;}
	.st1{fill:#EB6305;}
</style>
<g>
	<g>
		<path class="st0" d="M16,0C7.2,0,0,7.2,0,16s7.2,16,16,16c8.8,0,16-7.2,16-16S24.8,0,16,0z M16,28.2C9.2,28.2,3.7,22.7,3.7,16
			C3.7,9.2,9.2,3.7,16,3.7c6.7,0,12.2,5.5,12.2,12.2C28.2,22.7,22.7,28.2,16,28.2z"/>
		<circle class="st1" cx="16" cy="6" r="1"/>
		<circle class="st1" cx="16" cy="25.8" r="1"/>
		<circle class="st1" cx="25.9" cy="15.9" r="1"/>
		<circle class="st1" cx="6" cy="15.9" r="1"/>
		<circle class="st1" cx="23" cy="8.9" r="1"/>
		<circle class="st1" cx="9" cy="22.9" r="1"/>
		<circle class="st1" cx="23" cy="22.9" r="1"/>
		<circle class="st1" cx="9" cy="8.9" r="1"/>
		<path class="st0" d="M22.8,15h-4.3c-0.2-0.7-0.7-1.2-1.3-1.5V9.9c0-0.7-0.6-1.2-1.2-1.2c-0.7,0-1.2,0.6-1.2,1.2v3.6
			c-0.9,0.5-1.5,1.4-1.5,2.4c0,1.5,1.2,2.7,2.7,2.7c1,0,1.8-0.5,2.3-1.2h4.5c0.7,0,1.2-0.6,1.2-1.2C24,15.5,23.4,15,22.8,15z"/>
	</g>
</g>
</svg>
